<svg version="1" xmlns="http://www.w3.org/2000/svg" width="2666.667" height="2666.667" viewBox="0 0 2000.000000 2000.000000"><path d="M692.8 259.3c-3.6 3.7-35 36.7-37.8 39.7-1.8 1.9-10.6 11.2-19.5 20.5-9 9.4-18.2 19.1-20.5 21.5-2.3 2.5-11.5 12.1-20.3 21.4-8.9 9.3-17.5 18.3-19.2 20.1-1.6 1.7-10.4 10.9-19.5 20.5-9.1 9.5-18.3 19.2-20.5 21.5-3.3 3.6-15.4 16.2-39 41-27.4 28.7-34.7 36.4-36.4 38.4l-2.1 2.4v429.8l2.3 2.3c5.3 5.5 26.1 27.2 36.7 38.2 10.4 10.9 39 40.8 54.5 56.9 10.5 10.9 44.8 46.7 49.5 51.6 3.9 4.1 35.3 36.8 48 50 2.5 2.5 12.4 12.9 22 22.9 9.6 10.1 18.8 19.6 20.3 21.1l2.9 2.9h201.3c120.9 0 201.5.4 201.7.9.2.5 4.8 5.6 10.3 11.4 5.5 5.7 12.8 13.4 16.3 17l6.2 6.7v132.7l-10.8 10.9c-5.9 6-13.5 13.5-16.9 16.6l-6.2 5.8h-96.8c-53.2 0-97.2-.4-97.8-.8-.5-.4-2.6-2.7-4.6-5.2-2-2.5-8.9-9.8-15.3-16.3l-11.6-11.8V1198H458v148.4c0 81.6.3 148.6.8 148.8.4.2 4.8 4.6 9.7 9.8 5 5.2 17.2 18.1 27.2 28.5 10 10.5 19.2 20.2 20.3 21.5 1.2 1.4 6.9 7.4 12.8 13.5s17.5 18.2 25.7 26.9c8.3 8.6 17.5 18.3 20.5 21.5 3 3.2 12.7 13.4 21.5 22.6 8.8 9.3 18 19 20.5 21.6 5.3 5.5 30.4 32 37.3 39.3 2.7 2.8 11.6 12.1 19.7 20.6 8.1 8.5 16 16.7 17.4 18.2l2.5 2.8h306c255.5 0 306.2-.2 307.3-1.3.7-.8 8.5-9 17.3-18.2 8.8-9.3 17.6-18.5 19.5-20.5 27-28.2 37.6-39.4 40.6-42.6 3.1-3.2 25.7-27 39.4-41.4 3.5-3.7 33-34.6 40.5-42.5 2.2-2.3 10.5-11.1 18.5-19.5s16.5-17.4 19-20c2.5-2.6 11.5-12 20-21s16.5-17.3 17.8-18.6l2.2-2.3v-210.9c0-199.7-.1-211-1.8-212.9-.9-1.1-8.7-9.4-17.2-18.3-8.5-9-17.3-18.2-19.5-20.5-2.2-2.3-11.2-11.7-20-21-8.8-9.2-17.8-18.7-20-21-5.3-5.6-33.8-35.5-39.5-41.5-2.5-2.6-11.7-12.3-20.5-21.5-8.8-9.3-18-19-20.5-21.6-2.5-2.5-11-11.5-19-19.9-20-21.1-19.5-20.6-37.8-39.7-8.9-9.4-17.1-18-18.1-19.2l-1.8-2.1H902.8l-16.4-16.5-16.4-16.6V652.1l4.1-4.7c2.2-2.6 4.6-5.2 5.2-5.9.7-.7 3.9-4.3 7.2-8.1 3.3-3.7 7.9-8.8 10.2-11.3 2.4-2.5 4.3-4.9 4.3-5.4 0-.4 43.9-.7 97.5-.7h97.4l2.3 2.3c2.1 2.2 24.3 25.7 29.6 31.4l2.2 2.4V808h412V656.9c0-142.7-.1-151.3-1.7-152.8-1-.9-5.4-5.5-9.8-10.1-4.4-4.7-16.2-17.1-26.1-27.5-10-10.5-19.9-20.9-22-23.1-2.2-2.3-11.3-11.9-20.4-21.4-28.9-30.4-52.8-55.5-58.4-61.4-2.1-2.3-10.6-11.2-19-20-8.3-8.7-16.7-17.5-18.6-19.6-1.9-2-10.9-11.5-20-21s-18.5-19.3-20.9-21.9c-2.4-2.5-7.7-8.1-11.9-12.4l-7.4-7.7H999.9c-255.3 0-306 .2-307.1 1.3zm604 51.9c5 5.1 10.5 10.9 12.2 12.8 1.8 1.9 11.4 12 21.4 22.4 9.9 10.4 19.5 20.3 21.1 22.1 2.5 2.6 22.1 23.2 44.5 46.6 3 3.2 12 12.6 20 21 8 8.3 16.1 16.8 18 18.8 1.9 2.1 8.9 9.3 15.5 16.2 6.6 6.9 19.2 20.1 28 29.3 8.8 9.3 17.5 18.3 19.3 20.1l3.2 3.3V764h-328V631.8l-3.2-3.3c-2.6-2.6-37.9-39.1-50-51.7l-2.7-2.8h-232l-11.3 11.6c-6.2 6.4-14 14.4-17.3 17.9-3.3 3.4-10.8 11.2-16.7 17.3L828 631.9v178.2l4.7 5.2c2.6 2.9 13.3 13.7 23.8 24.2 10.4 10.4 21 21.1 23.4 23.7l4.3 4.8h403.9l2.5 2.7c2.4 2.7 22 23.1 47.4 49.6 6.3 6.6 12.9 13.5 14.5 15.2 1.7 1.8 10.5 11 19.6 20.6 9.2 9.6 19.1 19.9 22 23.1 3 3.1 13.1 13.6 22.4 23.4 19.8 20.7 19.9 20.8 41.5 43.4 9.1 9.5 18.2 19.1 20.4 21.4 2.1 2.3 7.8 8.2 12.7 13.3l8.9 9.2v386l-2.2 2.4c-3.3 3.6-32.3 33.9-39.3 41.1-3.3 3.4-13.4 14-22.5 23.6-9.1 9.5-19 19.9-22 23.1-14.6 15.2-38.1 39.8-41.6 43.5-2.1 2.3-11.5 12.2-20.9 21.9-9.3 9.8-18.5 19.4-20.4 21.4-1.9 2-8.4 8.8-14.5 15.2-6.1 6.3-15.1 15.7-19.9 20.7l-8.8 9.2h-288c-276.6 0-288-.1-289.6-1.8-4.6-4.7-37.9-39.6-41.5-43.4-2.2-2.4-11.6-12.2-20.8-21.8-19.1-19.9-21.4-22.3-40.2-42.1-7.5-7.9-16.5-17.4-20-21-11.9-12.5-42.3-44.2-45.8-47.9-9.1-9.6-36.8-38.6-39.2-41.1l-2.8-2.7V1242h328v128.1l4.8 5.1c8.4 9.1 12.6 13.2 21.1 20.8 8.7 7.7 15.7 14.5 24.9 24.4l5.4 5.6h116.4c64 0 116.4-.4 116.4-.8 0-1 21.6-23 40.3-40.9l14.7-14.2v-172.2l-11.2-11.6c-6.2-6.4-13.5-13.9-16.2-16.7-2.6-2.8-10.2-10.6-16.8-17.3l-12-12.3H711.9l-2.4-2.6c-1.3-1.4-7.9-8.4-14.7-15.6-6.8-7.1-14.1-14.9-16.3-17.2-2.2-2.3-10.5-11.1-18.4-19.4-8-8.4-16.5-17.4-18.9-20-2.4-2.6-10.2-10.8-17.2-18.2-7.1-7.4-15.2-16-18-19-6.5-6.9-29.3-31-35.1-37.1-5.6-5.9-32.3-34.1-36.9-39-12.3-13.1-28.9-30.6-31.2-33l-2.8-2.7v-196c0-192.3 0-195.9 1.9-198.1 1.7-1.9 25.7-27.1 41.1-43.1 5.7-5.9 38.2-40 43.4-45.4 2.1-2.3 11.6-12.2 21.1-22.1 9.4-9.9 18.3-19.2 19.6-20.6 1.4-1.5 10.8-11.4 20.9-22 10.2-10.6 20.3-21.1 22.5-23.4 2.2-2.3 11.4-12 20.5-21.5s17.4-18.3 18.5-19.6l2-2.3h288.2l288.1-.1 9 9.2z"/><path d="M730.3 355.8c-1 1-7.9 8.3-15.3 16.1-7.4 7.9-15.7 16.7-18.5 19.6-2.7 2.9-11.3 11.9-19 20-17.5 18.4-18.8 19.9-36.1 38.1-7.8 8.2-15.9 16.7-17.9 18.9-2.1 2.2-10.4 10.9-18.4 19.4-8 8.5-16.2 17.1-18.1 19.1-13.3 14-32.9 34.7-34.7 36.6l-2.3 2.3v350.2l8.3 8.6c12.7 13.2 15.8 16.5 36.7 38.3 10.7 11.2 24.5 25.6 30.7 32 6.1 6.3 13 13.5 15.3 16 2.3 2.5 12.2 12.8 21.9 22.9 9.7 10.1 20.3 21.2 23.6 24.6 3.3 3.5 13.8 14.4 23.2 24.2 9.5 9.9 18.4 19.2 19.7 20.6l2.5 2.7h403.9l6 6.2c3.3 3.5 7.4 7.9 9.2 9.8 1.8 1.9 8.1 8.7 14 15 5.9 6.3 12.2 13.1 14 15 1.8 1.9 8.3 8.8 14.4 15.4 6.1 6.5 12.8 13.7 14.9 16 2.1 2.2 6.1 6.5 8.8 9.3l4.9 5.3v212.1l-15.4 15.7c-8.5 8.6-20.5 20.9-26.6 27.2-6.2 6.3-18.7 19-27.7 28.2l-16.5 16.8H864.1l-4.8-4.9c-8.1-8.3-71.5-73.1-76.5-78.2l-4.8-4.9v-96H550v160.2l6.1 6.3c3.4 3.5 8.4 8.7 11.1 11.7 10.3 10.9 33.5 35.3 37.8 39.8 2.5 2.6 10 10.5 16.7 17.6 6.7 7.1 15 15.8 18.3 19.4 3.4 3.6 12.6 13.2 20.3 21.4 7.8 8.3 18.1 19.1 22.8 24 4.8 5 10.6 11.1 12.9 13.6 2.3 2.5 11 11.6 19.3 20.4 8.4 8.7 15.4 16.2 15.5 16.7.2.5 112.9.9 268.9.9 267.3 0 268.6 0 270.3-2 1.6-1.8 27.5-28.9 44-46 5.4-5.5 24.5-25.5 45.5-47.5 2.2-2.3 12.4-12.9 22.6-23.6 10.3-10.7 20.8-21.7 23.4-24.4 2.6-2.8 13.3-13.9 23.8-24.8s19.9-20.7 20.9-21.9c1.7-2 1.8-8.7 1.8-173v-171l-8.9-9.1c-4.9-5.1-10.8-11.2-13.1-13.7-2.4-2.5-12.9-13.4-23.4-24.4-10.5-10.9-21.3-22.1-24-25-2.7-2.8-13.3-13.9-23.6-24.6-29-30.2-56.4-58.9-66-69-2.9-3-9.7-10.1-15.2-15.8l-10-10.2H864.1l-2.3-2.3c-2.1-2.2-29.9-31.3-39.7-41.6-2.4-2.5-12.2-12.8-21.8-22.8-9.6-10-18.6-19.4-19.9-20.8l-2.4-2.6v-109c0-85.9.3-109.3 1.3-110.3 2.2-2.3 26-27.8 42.6-45.5 5.8-6.3 12-12.9 13.6-14.6 1.7-1.8 8.2-8.8 14.5-15.5 6.3-6.8 12.1-12.9 12.8-13.6 2-2.1 272.4-2.1 274.4-.1 1.5 1.6 23.3 24.9 26.9 28.8 1.3 1.5 7.6 8.2 13.9 14.9 6.3 6.7 12.6 13.4 13.9 14.9 2.2 2.4 9.7 10.3 24.3 25.7l5.8 6.2V712h230V546l-3.2-3.3c-1.8-1.9-10.9-11.4-20.3-21.2-9.3-9.8-19.2-20.1-22-23-2.7-2.8-12.9-13.4-22.5-23.4-9.6-10.1-20.2-21.1-23.5-24.6-6.7-6.9-35.4-37-43.6-45.5-2.9-3-14.3-14.9-25.3-26.4-11.1-11.5-20.9-21.8-21.8-22.8-1.7-1.7-11.6-1.8-269.8-1.8-257.6 0-268.1.1-269.7 1.8z"/></svg>